<svg width="199" height="39" viewBox="0 0 199 39" fill="none" xmlns="http://www.w3.org/2000/svg">
<g clip-path="url(#clip0_233_94)">
<path d="M3.968 22.661H0V3.00407e-05H8.649C13.795 3.00407e-05 16.802 2.60403 16.802 7.06803C16.802 10.106 15.376 12.276 12.71 13.361L17.019 22.661H12.679L8.835 14.198H3.968V22.661ZM3.968 3.53403V10.695H8.649C11.16 10.695 12.648 9.36203 12.648 7.06803C12.648 4.80503 11.16 3.53403 8.649 3.53403H3.968Z" fill="black"/>
<path d="M24.1611 22.661C20.9061 22.661 18.9221 20.77 18.9221 17.887C18.9221 15.066 20.9681 13.299 24.5951 13.02L29.1831 12.679V12.338C29.1831 10.261 27.9431 9.42403 26.0211 9.42403C23.7891 9.42403 22.5491 10.354 22.5491 11.966H19.3251C19.3251 8.64903 22.0531 6.47903 26.2071 6.47903C30.3301 6.47903 32.8721 8.71103 32.8721 12.958V22.661H30.1328L29.2761 19.995C28.6251 21.576 26.5481 22.661 24.1611 22.661ZM25.4011 19.809C27.7261 19.809 29.2141 18.414 29.2141 16.058V15.252L26.0211 15.5C23.6651 15.717 22.7661 16.492 22.7661 17.732C22.7661 19.127 23.6961 19.809 25.4011 19.809Z" fill="black"/>
<path d="M40.3695 22.661H36.5875V7.34703H40.0905L40.4005 9.33103C41.3615 7.78103 43.2215 6.88203 45.2985 6.88203C49.1425 6.88203 51.1265 9.26903 51.1265 13.237V22.661H47.3445V14.136C47.3445 11.563 46.0735 10.323 44.1205 10.323C41.7955 10.323 40.3695 11.935 40.3695 14.415V22.661Z" fill="black"/>
<path d="M61.1354 22.6611C56.7024 22.6611 53.9434 19.4061 53.9434 14.6631C53.9434 9.88905 56.7334 6.47905 61.3524 6.47905C63.4914 6.47905 65.3824 7.37805 66.3434 8.89705L66.3124 0L70.0944 3.00407e-05V22.6611H66.7802L66.3744 19.8711C65.4444 21.6381 63.4604 22.6611 61.1354 22.6611ZM61.9724 19.1891C64.6074 19.1891 66.3124 17.2981 66.3124 14.5391C66.3124 11.7801 64.6074 9.85805 61.9724 9.85805C59.3374 9.85805 57.7254 11.8111 57.7254 14.5391C57.7254 17.2671 59.3374 19.1891 61.9724 19.1891Z" fill="black"/>
<path d="M73.1367 14.6011C73.1367 9.82705 76.5777 6.54105 81.3207 6.54105C86.0637 6.54105 89.5048 9.82705 89.5048 14.6011C89.5048 19.3751 86.0637 22.6611 81.3207 22.6611C76.5777 22.6611 73.1367 19.3751 73.1367 14.6011ZM76.9187 14.6011C76.9187 17.3911 78.7167 19.2821 81.3207 19.2821C83.9247 19.2821 85.7227 17.3911 85.7227 14.6011C85.7227 11.8111 83.9247 9.92005 81.3207 9.92005C78.7167 9.92005 76.9187 11.8111 76.9187 14.6011Z" fill="black"/>
<path d="M96.2845 22.661H92.5025V7.34703H95.9745L96.2845 9.14503C97.0595 7.87403 98.6095 6.88203 100.811 6.88203C103.136 6.88203 104.748 8.02903 105.554 9.79603C106.329 8.02903 108.127 6.88203 110.452 6.88203C114.172 6.88203 116.218 9.11403 116.218 12.648V22.661H112.467V13.64C112.467 11.439 111.289 10.292 109.491 10.292C107.662 10.292 106.267 11.47 106.267 13.981V22.661H102.485V13.609C102.485 11.47 101.338 10.323 99.5396 10.323C97.7416 10.323 96.2845 11.501 96.2845 13.981V22.661Z" fill="black"/>
<path d="M123.201 22.599H121V0.403H123.201L131.292 19.964L139.383 0.403H141.615V22.599H139.414V12.059C139.414 8.184 139.476 6.479 139.6 4.96L132.377 22.599H130.238L123.015 5.053C123.139 5.89 123.201 8.339 123.201 11.718V22.599Z" fill="black"/>
<path d="M150.849 22.599C147.656 22.599 145.765 20.801 145.765 18.166C145.765 15.407 147.873 13.671 151.376 13.392L156.336 12.989V12.493C156.336 9.548 154.569 8.618 152.368 8.618C149.764 8.618 148.214 9.796 148.214 11.811H146.261C146.261 8.773 148.741 6.82 152.43 6.82C155.902 6.82 158.444 8.556 158.444 12.524V22.599H156.859L156.367 19.592C155.437 21.483 153.391 22.599 150.849 22.599ZM151.345 20.863C154.507 20.863 156.336 18.662 156.336 15.407V14.601L151.903 14.942C149.082 15.19 147.935 16.43 147.935 18.104C147.935 19.933 149.299 20.863 151.345 20.863Z" fill="black"/>
<path d="M165.905 22.599H163.797V9.393H160.79V7.595H163.797V2.852H165.905V7.595H168.912V9.393H165.905V22.599Z" fill="black"/>
<path d="M173.836 22.568H171.697V0H173.836V10.199C174.797 8.401 176.626 7.192 179.137 7.192C183.074 7.192 184.841 9.641 184.841 13.423V22.599H182.702V13.888C182.702 10.385 181.059 9.145 178.734 9.145C175.51 9.145 173.836 11.532 173.836 14.415V22.568Z" fill="black"/>
<path d="M187.652 17.98H189.698C189.698 19.716 191 20.801 193.108 20.801C195.433 20.801 196.797 19.809 196.797 18.197C196.797 16.957 196.177 16.244 194.41 15.81L191.837 15.159C189.233 14.508 187.962 13.144 187.962 11.098C187.962 8.463 190.163 6.789 193.387 6.789C196.549 6.789 198.595 8.525 198.688 11.315H196.611C196.549 9.579 195.34 8.556 193.325 8.556C191.217 8.556 190.039 9.455 190.039 11.067C190.039 12.214 190.845 13.02 192.488 13.423L195.061 14.074C197.665 14.725 198.843 15.934 198.843 18.104C198.843 20.801 196.549 22.568 193.139 22.568C189.76 22.568 187.652 20.77 187.652 17.98Z" fill="black"/>
<path fill-rule="evenodd" clip-rule="evenodd" d="M6.9903 31.5926C5.73138 31.5926 4.18501 32.4194 2.38053 34.7778C1.9423 35.3505 1.11337 35.4666 0.529067 35.037C-0.0552384 34.6075 -0.173657 33.795 0.264573 33.2222C2.23859 30.6423 4.47071 29 6.9903 29C9.50988 29 11.742 30.6423 13.716 33.2222C15.5205 35.5806 17.0669 36.4074 18.3258 36.4074C19.5847 36.4074 21.1311 35.5806 22.9356 33.2222C24.9096 30.6423 27.1417 29 29.6613 29C32.1809 29 34.413 30.6423 36.387 33.2222C38.1915 35.5806 39.7379 36.4074 40.9968 36.4074C42.2557 36.4074 43.8021 35.5806 45.6065 33.2222C47.5805 30.6423 49.8127 29 52.3322 29C54.8518 29 57.084 30.6423 59.058 33.2222C60.8625 35.5806 62.4088 36.4074 63.6677 36.4074C64.9267 36.4074 66.473 35.5806 68.2775 33.2222C70.2515 30.6423 72.4836 29 75.0032 29C77.5228 29 79.7549 30.6423 81.729 33.2222C83.5334 35.5806 85.0798 36.4074 86.3387 36.4074C87.5976 36.4074 89.144 35.5806 90.9485 33.2222C92.9225 30.6423 95.1546 29 97.6742 29C100.194 29 102.426 30.6423 104.4 33.2222C106.204 35.5806 107.751 36.4074 109.01 36.4074C110.269 36.4074 111.815 35.5806 113.619 33.2222C114.058 32.6495 114.887 32.5334 115.471 32.963C116.055 33.3925 116.174 34.205 115.735 34.7778C113.761 37.3577 111.529 39 109.01 39C106.49 39 104.258 37.3577 102.284 34.7778C100.479 32.4194 98.9331 31.5926 97.6742 31.5926C96.4153 31.5926 94.8689 32.4194 93.0644 34.7778C91.0904 37.3577 88.8583 39 86.3387 39C83.8191 39 81.587 37.3577 79.613 34.7778C77.8085 32.4194 76.2621 31.5926 75.0032 31.5926C73.7443 31.5926 72.1979 32.4194 70.3935 34.7778C68.4194 37.3577 66.1873 39 63.6677 39C61.1482 39 58.916 37.3577 56.942 34.7778C55.1375 32.4194 53.5912 31.5926 52.3322 31.5926C51.0733 31.5926 49.527 32.4194 47.7225 34.7778C45.7485 37.3577 43.5163 39 40.9968 39C38.4772 39 36.2451 37.3577 34.271 34.7778C32.4666 32.4194 30.9202 31.5926 29.6613 31.5926C28.4024 31.5926 26.856 32.4194 25.0515 34.7778C23.0775 37.3577 20.8454 39 18.3258 39C15.8062 39 13.5741 37.3577 11.6001 34.7778C9.79559 32.4194 8.24921 31.5926 6.9903 31.5926Z" fill="#FF7A00"/>
</g>
<defs>
<clipPath id="clip0_233_94">
<rect width="199" height="39" fill="white"/>
</clipPath>
</defs>
</svg>
